<svg width="191" height="92" viewBox="0 17.13 191 73.22" fill="none" xmlns="http://www.w3.org/2000/svg">
<rect y="64.9875" width="191" height="25.361" fill="white"/>
<path d="M22.0627 69L6.76367 17.1252H22.4679L29.5602 49.0404H29.9655L38.3749 17.1252H50.7356L59.145 49.1417H59.5503L66.6426 17.1252H82.3468L67.0478 69H53.5725L44.7579 40.0231H44.3526L35.538 69H22.0627ZM94.3213 69H79.1236L96.2464 17.1252H115.497L132.62 69H117.422L106.074 31.4111H105.669L94.3213 69ZM91.4844 48.5338H120.056V59.0708H91.4844V48.5338ZM137.616 69V17.1252H160.108C164.06 17.1252 167.378 17.6572 170.063 18.721C172.765 19.7848 174.799 21.2877 176.167 23.2296C177.552 25.1716 178.244 27.4597 178.244 30.0939C178.244 32.0021 177.822 33.7414 176.978 35.3118C176.15 36.8822 174.985 38.1994 173.482 39.2632C171.979 40.3101 170.223 41.0363 168.214 41.4415V41.9481C170.443 42.0326 172.469 42.5982 174.293 43.6452C176.117 44.6753 177.569 46.1022 178.649 47.9259C179.73 49.7327 180.271 51.8604 180.271 54.3089C180.271 57.1458 179.528 59.6703 178.042 61.8824C176.572 64.0945 174.479 65.8338 171.76 67.1003C169.041 68.3668 165.799 69 162.033 69H137.616ZM151.699 57.7537H158.285C160.649 57.7537 162.422 57.3147 163.604 56.4366C164.786 55.5416 165.377 54.2245 165.377 52.4852C165.377 51.2694 165.098 50.2393 164.541 49.395C163.984 48.5507 163.19 47.909 162.16 47.4699C161.147 47.0309 159.923 46.8114 158.487 46.8114H151.699V57.7537ZM151.699 38.098H157.474C158.707 38.098 159.796 37.9038 160.742 37.5155C161.687 37.1271 162.422 36.5698 162.945 35.8437C163.486 35.1007 163.756 34.1973 163.756 33.1335C163.756 31.5293 163.182 30.305 162.033 29.4607C160.885 28.5995 159.433 28.1689 157.677 28.1689H151.699V38.098Z" fill="white"/>
<path d="M13.2205 86.3651L8.97082 71.9555H13.3331L15.3032 80.8208H15.4158L17.7517 71.9555H21.1853L23.5212 80.8489H23.6338L25.6038 71.9555H29.9661L25.7164 86.3651H21.9733L19.5248 78.316H19.4122L16.9637 86.3651H13.2205ZM31.2326 86.3651V71.9555H35.1446V77.5842H40.3231V71.9555H44.2351V86.3651H40.3231V80.7363H35.1446V86.3651H31.2326ZM46.0926 86.3651V71.9555H56.4777V75.1076H50.0046V77.5842H55.9429V80.7363H50.0046V83.213H56.4495V86.3651H46.0926ZM58.4178 86.3651V71.9555H64.6376C65.7071 71.9555 66.6429 72.1501 67.445 72.5394C68.2471 72.9288 68.8709 73.4893 69.3165 74.221C69.7621 74.9528 69.985 75.8299 69.985 76.8525C69.985 77.8844 69.7551 78.7545 69.2954 79.4628C68.8404 80.1711 68.2002 80.7059 67.3746 81.067C66.5537 81.4282 65.5945 81.6088 64.4969 81.6088H60.7819V78.5693H63.7089C64.1686 78.5693 64.5602 78.513 64.8839 78.4004C65.2122 78.2831 65.4632 78.0979 65.6367 77.8446C65.815 77.5913 65.9041 77.2606 65.9041 76.8525C65.9041 76.4397 65.815 76.1043 65.6367 75.8463C65.4632 75.5837 65.2122 75.3914 64.8839 75.2694C64.5602 75.1427 64.1686 75.0794 63.7089 75.0794H62.3298V86.3651H58.4178ZM66.861 79.7513L70.4634 86.3651H66.2137L62.6957 79.7513H66.861ZM71.6525 86.3651V71.9555H82.0376V75.1076H75.5645V77.5842H81.5028V80.7363H75.5645V83.213H82.0094V86.3651H71.6525ZM87.2424 71.9555V73.6441C87.2424 74.1038 87.1486 74.5635 86.961 75.0231C86.778 75.4781 86.5435 75.9026 86.2574 76.2966C85.9759 76.686 85.6851 77.012 85.3849 77.2746L83.7807 76.4585C83.9777 76.1207 84.1536 75.7291 84.3084 75.2835C84.4632 74.8379 84.5406 74.2914 84.5406 73.6441V71.9555H87.2424ZM96.8342 76.4585C96.7967 75.9894 96.6208 75.6235 96.3065 75.3609C95.9969 75.0982 95.5255 74.9668 94.8923 74.9668C94.4889 74.9668 94.1582 75.0161 93.9002 75.1146C93.6469 75.2084 93.4593 75.3374 93.3373 75.5016C93.2154 75.6658 93.152 75.8534 93.1473 76.0645C93.138 76.238 93.1685 76.3951 93.2388 76.5359C93.3139 76.6719 93.4311 76.7962 93.5906 76.9088C93.7501 77.0167 93.9541 77.1152 94.2027 77.2043C94.4513 77.2934 94.7469 77.3731 95.0893 77.4435L96.2713 77.6968C97.0687 77.8657 97.7512 78.0885 98.3188 78.3652C98.8864 78.642 99.3507 78.968 99.7119 79.3432C100.073 79.7138 100.338 80.1312 100.507 80.5956C100.681 81.06 100.77 81.5666 100.774 82.1154C100.77 83.0629 100.533 83.865 100.064 84.5217C99.5946 85.1784 98.9239 85.6779 98.0514 86.0204C97.1836 86.3628 96.14 86.534 94.9204 86.534C93.668 86.534 92.5751 86.3487 91.6417 85.9781C90.7129 85.6076 89.9905 85.0377 89.4746 84.2684C88.9633 83.4944 88.7053 82.5047 88.7006 81.2992H92.4156C92.4391 81.7401 92.5493 82.1107 92.7463 82.4109C92.9433 82.7111 93.2201 82.9386 93.5765 83.0934C93.9377 83.2482 94.3669 83.3256 94.8641 83.3256C95.2816 83.3256 95.631 83.274 95.9125 83.1708C96.1939 83.0676 96.4073 82.9245 96.5528 82.7416C96.6982 82.5587 96.7732 82.3499 96.7779 82.1154C96.7732 81.8949 96.7005 81.7026 96.5598 81.5384C96.4238 81.3696 96.1986 81.2195 95.8843 81.0881C95.5701 80.9521 95.1456 80.8255 94.6108 80.7082L93.1755 80.3986C91.8996 80.1219 90.8935 79.6598 90.1571 79.0125C89.4253 78.3605 89.0618 77.4717 89.0665 76.3459C89.0618 75.4312 89.3057 74.6315 89.7982 73.9466C90.2954 73.2571 90.9826 72.72 91.8598 72.3354C92.7416 71.9508 93.7524 71.7584 94.8923 71.7584C96.0555 71.7584 97.0617 71.9531 97.9107 72.3424C98.7597 72.7318 99.414 73.2806 99.8737 73.9888C100.338 74.6924 100.573 75.5157 100.577 76.4585H96.8342ZM109.953 86.3651H105.731L110.487 71.9555H115.835L120.591 86.3651H116.37L113.217 75.9237H113.105L109.953 86.3651ZM109.165 80.6801H117.101V83.607H109.165V80.6801ZM125.926 86.3651V71.9555H132.174C133.272 71.9555 134.193 72.1032 134.939 72.3987C135.69 72.6942 136.255 73.1117 136.635 73.6511C137.02 74.1905 137.212 74.8261 137.212 75.5579C137.212 76.0879 137.095 76.571 136.86 77.0073C136.63 77.4435 136.307 77.8094 135.889 78.1049C135.472 78.3957 134.984 78.5974 134.426 78.71V78.8507C135.045 78.8742 135.608 79.0313 136.114 79.3221C136.621 79.6082 137.024 80.0046 137.324 80.5112C137.625 81.0131 137.775 81.6041 137.775 82.2843C137.775 83.0723 137.568 83.7735 137.156 84.388C136.747 85.0025 136.166 85.4856 135.411 85.8374C134.655 86.1892 133.755 86.3651 132.709 86.3651H125.926ZM129.838 83.2411H131.668C132.324 83.2411 132.817 83.1192 133.145 82.8753C133.473 82.6267 133.638 82.2608 133.638 81.7777C133.638 81.4399 133.56 81.1538 133.405 80.9193C133.251 80.6847 133.03 80.5065 132.744 80.3845C132.463 80.2626 132.122 80.2016 131.724 80.2016H129.838V83.2411ZM129.838 77.7812H131.442C131.785 77.7812 132.087 77.7273 132.35 77.6194C132.613 77.5115 132.817 77.3567 132.962 77.155C133.112 76.9486 133.187 76.6977 133.187 76.4022C133.187 75.9566 133.028 75.6165 132.709 75.382C132.39 75.1427 131.986 75.0231 131.499 75.0231H129.838V77.7812ZM143.073 71.9555V86.3651H139.161V71.9555H143.073ZM144.927 86.3651V71.9555H148.839V77.7812H149.036L153.37 71.9555H157.929L153.06 78.3723L158.042 86.3651H153.37L150.133 80.9615L148.839 82.6501V86.3651H144.927ZM159.09 86.3651V71.9555H169.475V75.1076H163.002V77.5842H168.941V80.7363H163.002V83.213H169.447V86.3651H159.09ZM174.314 81.8621V81.5244C174.314 80.7504 174.375 80.1336 174.497 79.6739C174.619 79.2142 174.8 78.846 175.039 78.5693C175.278 78.2878 175.571 78.0345 175.918 77.8094C176.219 77.6124 176.486 77.4224 176.721 77.2395C176.96 77.0565 177.147 76.8619 177.283 76.6555C177.424 76.4491 177.495 76.2146 177.495 75.9519C177.495 75.7174 177.438 75.511 177.326 75.3327C177.213 75.1545 177.061 75.0161 176.868 74.9176C176.676 74.8191 176.463 74.7698 176.228 74.7698C175.975 74.7698 175.74 74.8285 175.524 74.9457C175.313 75.063 175.142 75.2248 175.011 75.4312C174.884 75.6376 174.821 75.8768 174.821 76.1489H171.218C171.228 75.1169 171.462 74.2797 171.922 73.6371C172.382 72.9897 172.991 72.516 173.751 72.2158C174.511 71.9109 175.346 71.7584 176.256 71.7584C177.26 71.7584 178.156 71.9062 178.944 72.2017C179.732 72.4925 180.353 72.9335 180.808 73.5245C181.263 74.1108 181.491 74.8449 181.491 75.7267C181.491 76.2943 181.392 76.7939 181.195 77.2254C181.003 77.6522 180.733 78.0298 180.386 78.3582C180.044 78.6818 179.643 78.9773 179.183 79.2447C178.845 79.4417 178.562 79.6458 178.332 79.8568C178.102 80.0632 177.928 80.3001 177.811 80.5675C177.694 80.8302 177.635 81.1491 177.635 81.5244V81.8621H174.314ZM176.031 86.5903C175.487 86.5903 175.02 86.4003 174.631 86.0204C174.246 85.6357 174.056 85.169 174.061 84.6202C174.056 84.0855 174.246 83.6281 174.631 83.2482C175.02 82.8682 175.487 82.6783 176.031 82.6783C176.547 82.6783 177.002 82.8682 177.396 83.2482C177.795 83.6281 177.996 84.0855 178.001 84.6202C177.996 84.9861 177.9 85.3191 177.713 85.6193C177.53 85.9148 177.29 86.1517 176.995 86.3299C176.699 86.5035 176.378 86.5903 176.031 86.5903Z" fill="#4B97C1"/>
</svg>
